<svg width="24" height="24" viewBox="0 0 24 24" fill="none" xmlns="http://www.w3.org/2000/svg">
<g clip-path="url(#clip0_37094_50010)">
<path fill-rule="evenodd" clip-rule="evenodd" d="M12 24C18.6274 24 24 18.6274 24 12C24 5.37258 18.6274 0 12 0C5.37258 0 0 5.37258 0 12C0 18.6274 5.37258 24 12 24ZM12 23C18.0751 23 23 18.0751 23 12C23 5.92487 18.0751 1 12 1C5.92487 1 1 5.92487 1 12C1 18.0751 5.92487 23 12 23Z" fill="#FF4F59"/>
<path d="M17 12.5L8 17.2631L8 7.73686L17 12.5Z" fill="#FF4F59"/>
</g>
<defs>
<clipPath id="clip0_37094_50010">
<rect width="24" height="24" rx="12" fill="white"/>
</clipPath>
</defs>
</svg>
