<svg width="24" height="24" viewBox="0 0 24 24" fill="none" xmlns="http://www.w3.org/2000/svg">
<g clip-path="url(#clip0_36948_1732)">
<rect width="24" height="24" rx="12" fill="#161916"/>
<path d="M10.2747 6.80764L15.1319 11.9942L10.2746 17.1911C10.2746 17.1911 10.2746 17.1911 10.2746 17.1911C10.0751 17.4045 10.0751 17.7479 10.2746 17.9613C10.4786 18.1795 10.8137 18.1796 11.0176 17.9613C11.0176 17.9613 11.0176 17.9613 11.0176 17.9613L16.2254 12.3897L16.2254 12.3897C16.3255 12.2826 16.375 12.1482 16.375 12.0045C16.375 11.8728 16.3264 11.7276 16.2254 11.6194L16.2254 11.6194L11.0188 6.04908C10.8162 5.82025 10.4827 5.81899 10.2782 6.03369C10.277 6.03487 10.2758 6.03607 10.2746 6.0373C10.0751 6.25071 10.0751 6.59412 10.2746 6.80755L10.2747 6.80764Z" fill="#FF4F59" stroke="#FF4F59" stroke-width="0.25" stroke-linejoin="round"/>
<path fill-rule="evenodd" clip-rule="evenodd" d="M12 24C18.6274 24 24 18.6274 24 12C24 5.37258 18.6274 0 12 0C5.37258 0 0 5.37258 0 12C0 18.6274 5.37258 24 12 24ZM12 23C18.0751 23 23 18.0751 23 12C23 5.92487 18.0751 1 12 1C5.92487 1 1 5.92487 1 12C1 18.0751 5.92487 23 12 23Z" fill="#FF4F59"/>
</g>
<defs>
<clipPath id="clip0_36948_1732">
<rect width="24" height="24" rx="12" fill="white"/>
</clipPath>
</defs>
</svg>
